<svg aria-hidden="true" style="position: absolute; width: 0; height: 0; overflow: hidden;" version="1.1" xmlns="http://www.w3.org/2000/svg" xmlns:xlink="http://www.w3.org/1999/xlink">
<defs>
<symbol id="icon-weather-sunny" viewBox="0 0 24 24">
<path d="M13 4l-1 2.934-1-2.934c-0.188-0.553 0.106-1.152 0.659-1.341 0.552-0.188 1.153 0.107 1.341 0.659 0.078 0.23 0.072 0.469 0 0.682z"></path>
<path d="M4 11l2.934 1-2.934 1c-0.553 0.188-1.152-0.106-1.341-0.659-0.188-0.552 0.107-1.153 0.659-1.341 0.23-0.078 0.469-0.072 0.682 0z"></path>
<path d="M11 20l1-2.934 1 2.934c0.188 0.553-0.106 1.152-0.659 1.341-0.552 0.188-1.152-0.106-1.341-0.659-0.078-0.23-0.072-0.469 0-0.682z"></path>
<path d="M20 12.998l-2.934-1 2.934-1c0.553-0.188 1.152 0.106 1.341 0.659 0.188 0.552-0.106 1.152-0.659 1.341-0.23 0.078-0.469 0.072-0.682 0z"></path>
<path d="M7.050 5.636l1.367 2.781-2.781-1.367c-0.524-0.257-0.74-0.891-0.483-1.414 0.258-0.523 0.891-0.739 1.414-0.482 0.218 0.107 0.383 0.28 0.483 0.482z"></path>
<path d="M5.636 16.949l2.781-1.367-1.367 2.781c-0.257 0.523-0.891 0.739-1.414 0.482s-0.739-0.891-0.482-1.414c0.107-0.218 0.28-0.382 0.482-0.482z"></path>
<path d="M16.949 18.363l-1.367-2.781 2.781 1.367c0.523 0.257 0.739 0.891 0.482 1.414s-0.891 0.739-1.414 0.482c-0.218-0.107-0.382-0.28-0.482-0.482z"></path>
<path d="M18.362 7.048l-2.782 1.368 1.368-2.782c0.257-0.523 0.891-0.739 1.414-0.482s0.739 0.891 0.481 1.415c-0.106 0.217-0.279 0.381-0.481 0.481z"></path>
<path d="M12 16.5c-2.481 0-4.5-2.019-4.5-4.5s2.019-4.5 4.5-4.5 4.5 2.019 4.5 4.5-2.019 4.5-4.5 4.5zM12 9.5c-1.379 0-2.5 1.121-2.5 2.5s1.121 2.5 2.5 2.5 2.5-1.121 2.5-2.5-1.121-2.5-2.5-2.5z"></path>
</symbol>
<symbol id="icon-adjust-brightness" viewBox="0 0 24 24">
<path d="M12 6.934l1-2.934c0.072-0.213 0.078-0.452 0-0.682-0.188-0.553-0.789-0.848-1.341-0.659-0.553 0.189-0.847 0.788-0.659 1.341l1 2.934z"></path>
<path d="M4 11c-0.213-0.072-0.452-0.078-0.682 0-0.553 0.188-0.848 0.789-0.659 1.341 0.189 0.553 0.788 0.847 1.341 0.659l2.934-1-2.934-1z"></path>
<path d="M12 17.066l-1 2.934c-0.072 0.213-0.078 0.452 0 0.682 0.188 0.553 0.789 0.848 1.341 0.659 0.553-0.189 0.847-0.788 0.659-1.341l-1-2.934z"></path>
<path d="M21.341 11.657c-0.188-0.553-0.788-0.848-1.341-0.659l-2.934 1 2.934 1c0.213 0.072 0.452 0.078 0.682 0 0.552-0.188 0.847-0.789 0.659-1.341z"></path>
<path d="M5.636 7.050l2.781 1.367-1.367-2.781c-0.1-0.202-0.265-0.375-0.482-0.482-0.524-0.258-1.157-0.042-1.415 0.482-0.257 0.523-0.041 1.157 0.483 1.414z"></path>
<path d="M5.153 17.432c-0.257 0.523-0.041 1.156 0.482 1.414 0.523 0.257 1.157 0.041 1.414-0.482l1.367-2.781-2.781 1.367c-0.201 0.099-0.374 0.263-0.482 0.482z"></path>
<path d="M18.363 16.949l-2.781-1.367 1.367 2.781c0.1 0.202 0.264 0.375 0.482 0.482 0.523 0.257 1.156 0.041 1.414-0.482s0.042-1.157-0.482-1.414z"></path>
<path d="M18.844 6.566c0.258-0.524 0.042-1.157-0.481-1.415-0.523-0.257-1.157-0.041-1.414 0.482l-1.369 2.783 2.782-1.368c0.202-0.1 0.375-0.264 0.482-0.482z"></path>
<path d="M12 7.5c-2.481 0-4.5 2.019-4.5 4.5s2.019 4.5 4.5 4.5 4.5-2.019 4.5-4.5-2.019-4.5-4.5-4.5z"></path>
</symbol>
<symbol id="icon-qrcode" viewBox="0 0 32 32">
<path d="M10 2h-8v8h8v-8zM12 0v0 12h-12v-12h12zM4 4h4v4h-4zM30 2h-8v8h8v-8zM32 0v0 12h-12v-12h12zM24 4h4v4h-4zM10 22h-8v8h8v-8zM12 20v0 12h-12v-12h12zM4 24h4v4h-4zM14 0h2v2h-2zM16 2h2v2h-2zM14 4h2v2h-2zM16 6h2v2h-2zM14 8h2v2h-2zM16 10h2v2h-2zM14 12h2v2h-2zM14 16h2v2h-2zM16 18h2v2h-2zM14 20h2v2h-2zM16 22h2v2h-2zM14 24h2v2h-2zM16 26h2v2h-2zM14 28h2v2h-2zM16 30h2v2h-2zM30 16h2v2h-2zM2 16h2v2h-2zM4 14h2v2h-2zM0 14h2v2h-2zM8 14h2v2h-2zM10 16h2v2h-2zM12 14h2v2h-2zM18 16h2v2h-2zM20 14h2v2h-2zM22 16h2v2h-2zM24 14h2v2h-2zM26 16h2v2h-2zM28 14h2v2h-2zM30 20h2v2h-2zM18 20h2v2h-2zM20 18h2v2h-2zM22 20h2v2h-2zM26 20h2v2h-2zM28 18h2v2h-2zM30 24h2v2h-2zM18 24h2v2h-2zM20 22h2v2h-2zM24 22h2v2h-2zM26 24h2v2h-2zM28 22h2v2h-2zM30 28h2v2h-2zM20 26h2v2h-2zM22 28h2v2h-2zM24 26h2v2h-2zM26 28h2v2h-2zM20 30h2v2h-2zM24 30h2v2h-2zM28 30h2v2h-2z"></path>
</symbol>
<symbol id="icon-phone" viewBox="0 0 32 32">
<path d="M22 20c-2 2-2 4-4 4s-4-2-6-4-4-4-4-6 2-2 4-4-4-8-6-8-6 6-6 6c0 4 4.109 12.109 8 16s12 8 16 8c0 0 6-4 6-6s-6-8-8-6z"></path>
</symbol>
<symbol id="icon-envelop" viewBox="0 0 32 32">
<path d="M29 4h-26c-1.65 0-3 1.35-3 3v20c0 1.65 1.35 3 3 3h26c1.65 0 3-1.35 3-3v-20c0-1.65-1.35-3-3-3zM12.461 17.199l-8.461 6.59v-15.676l8.461 9.086zM5.512 8h20.976l-10.488 7.875-10.488-7.875zM12.79 17.553l3.21 3.447 3.21-3.447 6.58 8.447h-19.579l6.58-8.447zM19.539 17.199l8.461-9.086v15.676l-8.461-6.59z"></path>
</symbol>
<symbol id="icon-map2" viewBox="0 0 32 32">
<path d="M21 6l-10-4-11 4v24l11-4 10 4 11-4v-24l-11 4zM12 4.554l8 3.2v19.692l-8-3.2v-19.692zM2 7.401l8-2.909v19.744l-8 2.909v-19.744zM30 24.599l-8 2.909v-19.744l8-2.909v19.744z"></path>
</symbol>
<symbol id="icon-calendar" viewBox="0 0 32 32">
<path d="M10 12h4v4h-4zM16 12h4v4h-4zM22 12h4v4h-4zM4 24h4v4h-4zM10 24h4v4h-4zM16 24h4v4h-4zM10 18h4v4h-4zM16 18h4v4h-4zM22 18h4v4h-4zM4 18h4v4h-4zM26 0v2h-4v-2h-14v2h-4v-2h-4v32h30v-32h-4zM28 30h-26v-22h26v22z"></path>
</symbol>
<symbol id="icon-facebook2" viewBox="0 0 32 32">
<path d="M29 0h-26c-1.65 0-3 1.35-3 3v26c0 1.65 1.35 3 3 3h13v-14h-4v-4h4v-2c0-3.306 2.694-6 6-6h4v4h-4c-1.1 0-2 0.9-2 2v2h6l-1 4h-5v14h9c1.65 0 3-1.35 3-3v-26c0-1.65-1.35-3-3-3z"></path>
</symbol>
<symbol id="icon-instagram" viewBox="0 0 32 32">
<path d="M16 2.881c4.275 0 4.781 0.019 6.462 0.094 1.563 0.069 2.406 0.331 2.969 0.55 0.744 0.288 1.281 0.638 1.837 1.194 0.563 0.563 0.906 1.094 1.2 1.838 0.219 0.563 0.481 1.412 0.55 2.969 0.075 1.688 0.094 2.194 0.094 6.463s-0.019 4.781-0.094 6.463c-0.069 1.563-0.331 2.406-0.55 2.969-0.288 0.744-0.637 1.281-1.194 1.837-0.563 0.563-1.094 0.906-1.837 1.2-0.563 0.219-1.413 0.481-2.969 0.55-1.688 0.075-2.194 0.094-6.463 0.094s-4.781-0.019-6.463-0.094c-1.563-0.069-2.406-0.331-2.969-0.55-0.744-0.288-1.281-0.637-1.838-1.194-0.563-0.563-0.906-1.094-1.2-1.837-0.219-0.563-0.481-1.413-0.55-2.969-0.075-1.688-0.094-2.194-0.094-6.463s0.019-4.781 0.094-6.463c0.069-1.563 0.331-2.406 0.55-2.969 0.288-0.744 0.638-1.281 1.194-1.838 0.563-0.563 1.094-0.906 1.838-1.2 0.563-0.219 1.412-0.481 2.969-0.55 1.681-0.075 2.188-0.094 6.463-0.094zM16 0c-4.344 0-4.887 0.019-6.594 0.094-1.7 0.075-2.869 0.35-3.881 0.744-1.056 0.412-1.95 0.956-2.837 1.85-0.894 0.888-1.438 1.781-1.85 2.831-0.394 1.019-0.669 2.181-0.744 3.881-0.075 1.713-0.094 2.256-0.094 6.6s0.019 4.887 0.094 6.594c0.075 1.7 0.35 2.869 0.744 3.881 0.413 1.056 0.956 1.95 1.85 2.837 0.887 0.887 1.781 1.438 2.831 1.844 1.019 0.394 2.181 0.669 3.881 0.744 1.706 0.075 2.25 0.094 6.594 0.094s4.888-0.019 6.594-0.094c1.7-0.075 2.869-0.35 3.881-0.744 1.050-0.406 1.944-0.956 2.831-1.844s1.438-1.781 1.844-2.831c0.394-1.019 0.669-2.181 0.744-3.881 0.075-1.706 0.094-2.25 0.094-6.594s-0.019-4.887-0.094-6.594c-0.075-1.7-0.35-2.869-0.744-3.881-0.394-1.063-0.938-1.956-1.831-2.844-0.887-0.887-1.781-1.438-2.831-1.844-1.019-0.394-2.181-0.669-3.881-0.744-1.712-0.081-2.256-0.1-6.6-0.1v0z"></path>
<path d="M16 7.781c-4.537 0-8.219 3.681-8.219 8.219s3.681 8.219 8.219 8.219 8.219-3.681 8.219-8.219c0-4.537-3.681-8.219-8.219-8.219zM16 21.331c-2.944 0-5.331-2.387-5.331-5.331s2.387-5.331 5.331-5.331c2.944 0 5.331 2.387 5.331 5.331s-2.387 5.331-5.331 5.331z"></path>
<path d="M26.462 7.456c0 1.060-0.859 1.919-1.919 1.919s-1.919-0.859-1.919-1.919c0-1.060 0.859-1.919 1.919-1.919s1.919 0.859 1.919 1.919z"></path>
</symbol>
</defs>
</svg>
